<svg width="30" height="31" viewBox="0 0 30 31" fill="none" xmlns="http://www.w3.org/2000/svg">
<rect width="29.5096" height="30.5" rx="6" fill="#EEF1FE"/>
<path d="M21.5096 19.6731C21.5096 21.5664 20.8574 23.1776 19.5529 24.5065C18.2484 25.8355 16.6531 26.5 14.7668 26.5C12.8806 26.5 11.2813 25.8355 9.96875 24.5065C8.65625 23.1776 8 21.5664 8 19.6731V8.75962C8 7.4375 8.45473 6.3137 9.36419 5.38822C10.2736 4.46274 11.3894 4 12.7116 4C14.0337 4 15.1494 4.46274 16.0589 5.38822C16.9684 6.3137 17.4231 7.4375 17.4231 8.75962V19.0962C17.4231 19.8301 17.167 20.4623 16.6548 20.9928C16.1427 21.5232 15.5185 21.7885 14.7823 21.7885C14.046 21.7885 13.4127 21.5274 12.8822 21.0052C12.3518 20.4831 12.0865 19.8467 12.0865 19.0962V8.71153H13.3366V19.0962C13.3366 19.4952 13.4732 19.8353 13.7464 20.1166C14.0196 20.3978 14.3558 20.5385 14.7548 20.5385C15.1539 20.5385 15.49 20.3978 15.7632 20.1166C16.0365 19.8353 16.1731 19.4952 16.1731 19.0962V8.73556C16.1683 7.76442 15.8344 6.94071 15.1714 6.26444C14.5085 5.58815 13.6885 5.25 12.7116 5.25C11.7423 5.25 10.9231 5.59215 10.2538 6.27644C9.58462 6.96073 9.25 7.78846 9.25 8.75962V19.6731C9.24521 21.2163 9.77967 22.5316 10.8534 23.619C11.9271 24.7063 13.2345 25.25 14.7755 25.25C16.2949 25.25 17.5863 24.7063 18.6499 23.619C19.7134 22.5316 20.25 21.2163 20.2596 19.6731V8.71153H21.5096V19.6731Z" fill="#1C1B1F"/>
</svg>
