<svg width="30" height="30" viewBox="0 0 30 30" fill="none" xmlns="http://www.w3.org/2000/svg">
<rect width="29.9135" height="30" rx="6" fill="#EEF1FE"/>
<path d="M14.9135 25C12.375 25 10.1622 24.1711 8.27522 22.5132C6.3882 20.8554 5.29646 18.7676 5 16.25H6.26441C6.60416 18.4006 7.58373 20.1883 9.20312 21.613C10.8225 23.0377 12.726 23.75 14.9135 23.75C17.351 23.75 19.4187 22.901 21.1166 21.2031C22.8145 19.5052 23.6635 17.4375 23.6635 15C23.6635 12.5625 22.8145 10.4948 21.1166 8.79688C19.4187 7.09896 17.351 6.25 14.9135 6.25C13.6202 6.25 12.4046 6.52324 11.2668 7.06972C10.129 7.6162 9.125 8.3686 8.25481 9.32694H11.3558V10.5769H6.16344V5.38462H7.41344V8.37019C8.37979 7.30929 9.51241 6.48236 10.8113 5.88941C12.1102 5.29647 13.4776 5 14.9135 5C16.2997 5 17.5989 5.26081 18.8113 5.78244C20.0236 6.30408 21.0829 7.01803 21.9892 7.92428C22.8954 8.83053 23.6094 9.88982 24.131 11.1022C24.6526 12.3145 24.9135 13.6138 24.9135 15C24.9135 16.3862 24.6526 17.6855 24.131 18.8978C23.6094 20.1102 22.8954 21.1695 21.9892 22.0757C21.0829 22.982 20.0236 23.6959 18.8113 24.2176C17.5989 24.7392 16.2997 25 14.9135 25ZM18.9182 19.8173L14.3606 15.2596V8.75H15.6106V14.7404L19.8029 18.9327L18.9182 19.8173Z" fill="#1C1B1F"/>
</svg>
