<svg width="30" height="30" viewBox="0 0 30 30" fill="none" xmlns="http://www.w3.org/2000/svg">
<rect width="29.25" height="29.25" rx="6" fill="#EEF1FE"/>
<path d="M11.0673 17.3654H21.9327L18.4856 12.7981L15.4183 16.6442L13.4327 14.2885L11.0673 17.3654ZM9.76922 21.5C9.19391 21.5 8.71354 21.3073 8.32812 20.9219C7.94271 20.5365 7.75 20.0561 7.75 19.4808V6.01922C7.75 5.44391 7.94271 4.96354 8.32812 4.57812C8.71354 4.19271 9.19391 4 9.76922 4H23.2308C23.8061 4 24.2865 4.19271 24.6719 4.57812C25.0573 4.96354 25.25 5.44391 25.25 6.01922V19.4808C25.25 20.0561 25.0573 20.5365 24.6719 20.9219C24.2865 21.3073 23.8061 21.5 23.2308 21.5H9.76922ZM9.76922 20.25H23.2308C23.4231 20.25 23.5994 20.1699 23.7596 20.0096C23.9199 19.8494 24 19.6731 24 19.4808V6.01922C24 5.82693 23.9199 5.65065 23.7596 5.49038C23.5994 5.33013 23.4231 5.25 23.2308 5.25H9.76922C9.57693 5.25 9.40065 5.33013 9.24037 5.49038C9.08012 5.65065 9 5.82693 9 6.01922V19.4808C9 19.6731 9.08012 19.8494 9.24037 20.0096C9.40065 20.1699 9.57693 20.25 9.76922 20.25ZM6.01922 25.25C5.44391 25.25 4.96354 25.0573 4.57812 24.6719C4.19271 24.2865 4 23.8061 4 23.2308V8.51922H5.25V23.2308C5.25 23.4231 5.33013 23.5994 5.49038 23.7596C5.65063 23.9199 5.82691 24 6.01922 24H20.7308V25.25H6.01922Z" fill="#1C1B1F"/>
</svg>
