<svg width="30" height="30" viewBox="0 0 30 30" fill="none" xmlns="http://www.w3.org/2000/svg">
<rect width="29.25" height="29.25" rx="6" fill="#EEF1FE"/>
<path d="M9.76922 21.5C9.19391 21.5 8.71354 21.3073 8.32812 20.9219C7.94271 20.5365 7.75 20.0561 7.75 19.4808V17.6058H9V19.4808C9 19.6731 9.08012 19.8494 9.24037 20.0096C9.40065 20.1699 9.57693 20.25 9.76922 20.25H23.2308C23.4231 20.25 23.5994 20.1699 23.7596 20.0096C23.9199 19.8494 24 19.6731 24 19.4808V7.75H9V10.3942H7.75V6.01922C7.75 5.44391 7.94271 4.96354 8.32812 4.57812C8.71354 4.19271 9.19391 4 9.76922 4H23.2308C23.8061 4 24.2865 4.19271 24.6719 4.57812C25.0573 4.96354 25.25 5.44391 25.25 6.01922V19.4808C25.25 20.0561 25.0573 20.5365 24.6719 20.9219C24.2865 21.3073 23.8061 21.5 23.2308 21.5H9.76922ZM6.01922 25.25C5.44391 25.25 4.96354 25.0573 4.57812 24.6719C4.19271 24.2865 4 23.8061 4 23.2308V8.51922H5.25V23.2308C5.25 23.4231 5.33013 23.5994 5.49038 23.7596C5.65063 23.9199 5.82691 24 6.01922 24H20.7308V25.25H6.01922ZM15.1538 18.5913L14.2933 17.7308L17.3438 14.625H7.75V13.375H17.3438L14.2933 10.2692L15.1538 9.40866L19.7452 14L15.1538 18.5913Z" fill="#1C1B1F"/>
</svg>
