<svg width="30" height="30" viewBox="0 0 30 30" fill="none" xmlns="http://www.w3.org/2000/svg">
<rect width="29.0577" height="29.2308" rx="6" fill="#EEF1FE"/>
<path d="M19.5288 10V6.25H9.52884V10H8.27884V5H20.7788V10H19.5288ZM21.5481 14.375C21.9022 14.375 22.1991 14.2552 22.4387 14.0156C22.6783 13.776 22.7981 13.4792 22.7981 13.125C22.7981 12.7708 22.6783 12.474 22.4387 12.2344C22.1991 11.9948 21.9022 11.875 21.5481 11.875C21.1939 11.875 20.897 11.9948 20.6574 12.2344C20.4179 12.474 20.2981 12.7708 20.2981 13.125C20.2981 13.4792 20.4179 13.776 20.6574 14.0156C20.897 14.2552 21.1939 14.375 21.5481 14.375ZM19.5288 22.9808V17.3077H9.52884V22.9808H19.5288ZM20.7788 24.2308H8.27884V19.2308H4V12.5C4 11.7917 4.24039 11.1979 4.72116 10.7188C5.20193 10.2396 5.79488 10 6.5 10H22.5577C23.266 10 23.8598 10.2396 24.3389 10.7188C24.8181 11.1979 25.0577 11.7917 25.0577 12.5V19.2308H20.7788V24.2308ZM23.8077 17.9808V12.5C23.8077 12.1458 23.6879 11.849 23.4483 11.6094C23.2087 11.3698 22.9119 11.25 22.5577 11.25H6.5C6.14583 11.25 5.84896 11.3698 5.60938 11.6094C5.36979 11.849 5.25 12.1458 5.25 12.5V17.9808H8.27884V16.0577H20.7788V17.9808H23.8077Z" fill="#1C1B1F"/>
</svg>
