<svg width="30" height="29" viewBox="0 0 30 29" fill="none" xmlns="http://www.w3.org/2000/svg">
<rect width="29.1803" height="28.7885" rx="6" fill="#EEF1FE"/>
<path d="M14.3894 25.7885C13.7099 25.7885 13.0629 25.6474 12.4483 25.3654C11.8337 25.0833 11.3253 24.6731 10.9231 24.1346L5 16.2957L5.32931 15.9351C5.53765 15.7059 5.78524 15.5657 6.07209 15.5144C6.35897 15.4631 6.63221 15.5136 6.89181 15.6659L10.6707 17.5288V8C10.6707 7.82292 10.7306 7.67448 10.8506 7.55469C10.9706 7.4349 11.1192 7.375 11.2965 7.375C11.4738 7.375 11.6234 7.4349 11.7452 7.55469C11.867 7.67448 11.9279 7.82292 11.9279 8V19.6491L7.45434 17.4375L12.0024 23.4447C12.2877 23.8149 12.6418 24.0898 13.0649 24.2693C13.488 24.4487 13.9295 24.5385 14.3894 24.5385H19.7812C20.6611 24.5385 21.4059 24.2376 22.0156 23.6358C22.6254 23.0341 22.9303 22.2933 22.9303 21.4135V16.9904C22.9303 16.4864 22.7598 16.0639 22.4189 15.723C22.0779 15.382 21.6554 15.2116 21.1514 15.2116H15.3894V13.9615H21.1514C21.9928 13.9615 22.7079 14.256 23.2969 14.845C23.8858 15.4339 24.1803 16.1491 24.1803 16.9904V21.4118C24.1803 22.6277 23.7495 23.6611 22.8881 24.512C22.0266 25.363 20.991 25.7885 19.7812 25.7885H14.3894ZM6.97113 10.5C6.74838 10.1218 6.58011 9.72207 6.46634 9.30084C6.35255 8.87962 6.29566 8.446 6.29566 8C6.29566 6.60738 6.78083 5.42589 7.75119 4.45553C8.72154 3.48518 9.90303 3 11.2957 3C12.6883 3 13.8698 3.48518 14.8402 4.45553C15.8105 5.42589 16.2957 6.60636 16.2957 7.99694C16.2957 8.44929 16.2388 8.88501 16.125 9.30409C16.0112 9.72316 15.8429 10.1218 15.6202 10.5L14.5457 9.875C14.7123 9.58333 14.8373 9.28646 14.9207 8.98438C15.004 8.68229 15.0457 8.35417 15.0457 8C15.0457 6.95833 14.6811 6.07292 13.9519 5.34375C13.2227 4.61458 12.3373 4.25 11.2957 4.25C10.254 4.25 9.36857 4.61458 8.63941 5.34375C7.91024 6.07292 7.54566 6.95833 7.54566 8C7.54566 8.35417 7.58732 8.68229 7.67066 8.98438C7.75399 9.28646 7.87899 9.58333 8.04566 9.875L6.97113 10.5Z" fill="#1C1B1F"/>
</svg>
